<?xml version="1.0" encoding="UTF-8" standalone="no"?><svg xmlns="http://www.w3.org/2000/svg" xmlns:xlink="http://www.w3.org/1999/xlink" contentScriptType="application/ecmascript" contentStyleType="text/css" height="1105px" preserveAspectRatio="none" style="width:1359px;height:1105px;background:#FFFFFF;" version="1.1" viewBox="0 0 1359 1105" width="1359px" zoomAndPan="magnify"><defs><filter height="300%" id="fbura4qzcntbe" width="300%" x="-1" y="-1"><feGaussianBlur result="blurOut" stdDeviation="2.0"/><feColorMatrix in="blurOut" result="blurOut2" type="matrix" values="0 0 0 0 0 0 0 0 0 0 0 0 0 0 0 0 0 0 .4 0"/><feOffset dx="4.0" dy="4.0" in="blurOut2" result="blurOut3"/><feBlend in="SourceGraphic" in2="blurOut3" mode="normal"/></filter></defs><g><rect fill="#F08080" filter="url(#fbura4qzcntbe)" height="28" style="stroke:#A80036;stroke-width:1.0;" width="10" x="34.5" y="165.8281"/><rect fill="#F08080" filter="url(#fbura4qzcntbe)" height="29.1328" style="stroke:#A80036;stroke-width:1.0;" width="10" x="34.5" y="579.5547"/><rect fill="#F08080" filter="url(#fbura4qzcntbe)" height="313.4609" style="stroke:#A80036;stroke-width:1.0;" width="10" x="264.5" y="229.9609"/><rect fill="#F08080" filter="url(#fbura4qzcntbe)" height="88.2656" style="stroke:#A80036;stroke-width:1.0;" width="10" x="488.5" y="404.8906"/><rect fill="#ADD8E6" filter="url(#fbura4qzcntbe)" height="30" style="stroke:#A80036;stroke-width:1.0;" width="10" x="640.5" y="434.0234"/><rect fill="#ADD8E6" filter="url(#fbura4qzcntbe)" height="29.1328" style="stroke:#A80036;stroke-width:1.0;" width="10" x="640.5" y="885.1484"/><rect fill="#ADD8E6" filter="url(#fbura4qzcntbe)" height="254.3281" style="stroke:#A80036;stroke-width:1.0;" width="10" x="882.5" y="710.2188"/><rect fill="#ADD8E6" filter="url(#fbura4qzcntbe)" height="65.3984" style="stroke:#A80036;stroke-width:1.0;" width="10" x="1117.5" y="608.6875"/><rect fill="#ADD8E6" filter="url(#fbura4qzcntbe)" height="30" style="stroke:#A80036;stroke-width:1.0;" width="10" x="1117.5" y="1000.6797"/><line style="stroke:#A80036;stroke-width:1.0;stroke-dasharray:5.0,5.0;" x1="39" x2="39" y1="53.2969" y2="1048.6797"/><line style="stroke:#A80036;stroke-width:1.0;stroke-dasharray:5.0,5.0;" x1="269" x2="269" y1="53.2969" y2="1048.6797"/><line style="stroke:#A80036;stroke-width:1.0;stroke-dasharray:5.0,5.0;" x1="493.5" x2="493.5" y1="53.2969" y2="1048.6797"/><line style="stroke:#A80036;stroke-width:1.0;stroke-dasharray:5.0,5.0;" x1="645.5" x2="645.5" y1="53.2969" y2="1048.6797"/><line style="stroke:#A80036;stroke-width:1.0;stroke-dasharray:5.0,5.0;" x1="887" x2="887" y1="53.2969" y2="1048.6797"/><line style="stroke:#A80036;stroke-width:1.0;stroke-dasharray:5.0,5.0;" x1="1122" x2="1122" y1="53.2969" y2="1048.6797"/><text fill="#000000" font-family="sans-serif" font-size="14" lengthAdjust="spacing" textLength="63" x="5" y="49.9951">SAE_A01</text><ellipse cx="39.5" cy="21" fill="#F08080" filter="url(#fbura4qzcntbe)" rx="12" ry="12" style="stroke:#A80036;stroke-width:2.0;"/><line style="stroke:#A80036;stroke-width:2.0;" x1="27.5" x2="51.5" y1="35" y2="35"/><text fill="#000000" font-family="sans-serif" font-size="14" lengthAdjust="spacing" textLength="63" x="5" y="1060.6748">SAE_A01</text><ellipse cx="39.5" cy="1079.9766" fill="#F08080" filter="url(#fbura4qzcntbe)" rx="12" ry="12" style="stroke:#A80036;stroke-width:2.0;"/><line style="stroke:#A80036;stroke-width:2.0;" x1="27.5" x2="51.5" y1="1093.9766" y2="1093.9766"/><rect fill="#F08080" filter="url(#fbura4qzcntbe)" height="30.2969" style="stroke:#A80036;stroke-width:1.5;" width="107" x="214" y="18"/><text fill="#000000" font-family="sans-serif" font-size="14" lengthAdjust="spacing" textLength="93" x="221" y="37.9951">OPERATOR A</text><rect fill="#F08080" filter="url(#fbura4qzcntbe)" height="30.2969" style="stroke:#A80036;stroke-width:1.5;" width="107" x="214" y="1047.6797"/><text fill="#000000" font-family="sans-serif" font-size="14" lengthAdjust="spacing" textLength="93" x="221" y="1067.6748">OPERATOR A</text><rect fill="#F08080" filter="url(#fbura4qzcntbe)" height="30.2969" style="stroke:#A80036;stroke-width:1.5;" width="58" x="462.5" y="18"/><text fill="#000000" font-family="sans-serif" font-size="14" lengthAdjust="spacing" textLength="44" x="469.5" y="37.9951">QKS A</text><rect fill="#F08080" filter="url(#fbura4qzcntbe)" height="30.2969" style="stroke:#A80036;stroke-width:1.5;" width="58" x="462.5" y="1047.6797"/><text fill="#000000" font-family="sans-serif" font-size="14" lengthAdjust="spacing" textLength="44" x="469.5" y="1067.6748">QKS A</text><rect fill="#ADD8E6" filter="url(#fbura4qzcntbe)" height="30.2969" style="stroke:#A80036;stroke-width:1.5;" width="58" x="614.5" y="18"/><text fill="#000000" font-family="sans-serif" font-size="14" lengthAdjust="spacing" textLength="44" x="621.5" y="37.9951">QKS B</text><rect fill="#ADD8E6" filter="url(#fbura4qzcntbe)" height="30.2969" style="stroke:#A80036;stroke-width:1.5;" width="58" x="614.5" y="1047.6797"/><text fill="#000000" font-family="sans-serif" font-size="14" lengthAdjust="spacing" textLength="44" x="621.5" y="1067.6748">QKS B</text><rect fill="#ADD8E6" filter="url(#fbura4qzcntbe)" height="30.2969" style="stroke:#A80036;stroke-width:1.5;" width="107" x="832" y="18"/><text fill="#000000" font-family="sans-serif" font-size="14" lengthAdjust="spacing" textLength="93" x="839" y="37.9951">OPERATOR B</text><rect fill="#ADD8E6" filter="url(#fbura4qzcntbe)" height="30.2969" style="stroke:#A80036;stroke-width:1.5;" width="107" x="832" y="1047.6797"/><text fill="#000000" font-family="sans-serif" font-size="14" lengthAdjust="spacing" textLength="93" x="839" y="1067.6748">OPERATOR B</text><text fill="#000000" font-family="sans-serif" font-size="14" lengthAdjust="spacing" textLength="63" x="1088" y="49.9951">SAE_B01</text><ellipse cx="1122.5" cy="21" fill="#ADD8E6" filter="url(#fbura4qzcntbe)" rx="12" ry="12" style="stroke:#A80036;stroke-width:2.0;"/><line style="stroke:#A80036;stroke-width:2.0;" x1="1110.5" x2="1134.5" y1="35" y2="35"/><text fill="#000000" font-family="sans-serif" font-size="14" lengthAdjust="spacing" textLength="63" x="1088" y="1060.6748">SAE_B01</text><ellipse cx="1122.5" cy="1079.9766" fill="#ADD8E6" filter="url(#fbura4qzcntbe)" rx="12" ry="12" style="stroke:#A80036;stroke-width:2.0;"/><line style="stroke:#A80036;stroke-width:2.0;" x1="1110.5" x2="1134.5" y1="1093.9766" y2="1093.9766"/><rect fill="#F08080" filter="url(#fbura4qzcntbe)" height="28" style="stroke:#A80036;stroke-width:1.0;" width="10" x="34.5" y="165.8281"/><rect fill="#F08080" filter="url(#fbura4qzcntbe)" height="29.1328" style="stroke:#A80036;stroke-width:1.0;" width="10" x="34.5" y="579.5547"/><rect fill="#F08080" filter="url(#fbura4qzcntbe)" height="313.4609" style="stroke:#A80036;stroke-width:1.0;" width="10" x="264.5" y="229.9609"/><rect fill="#F08080" filter="url(#fbura4qzcntbe)" height="88.2656" style="stroke:#A80036;stroke-width:1.0;" width="10" x="488.5" y="404.8906"/><rect fill="#ADD8E6" filter="url(#fbura4qzcntbe)" height="30" style="stroke:#A80036;stroke-width:1.0;" width="10" x="640.5" y="434.0234"/><rect fill="#ADD8E6" filter="url(#fbura4qzcntbe)" height="29.1328" style="stroke:#A80036;stroke-width:1.0;" width="10" x="640.5" y="885.1484"/><rect fill="#ADD8E6" filter="url(#fbura4qzcntbe)" height="254.3281" style="stroke:#A80036;stroke-width:1.0;" width="10" x="882.5" y="710.2188"/><rect fill="#ADD8E6" filter="url(#fbura4qzcntbe)" height="65.3984" style="stroke:#A80036;stroke-width:1.0;" width="10" x="1117.5" y="608.6875"/><rect fill="#ADD8E6" filter="url(#fbura4qzcntbe)" height="30" style="stroke:#A80036;stroke-width:1.0;" width="10" x="1117.5" y="1000.6797"/><rect fill="#EEEEEE" filter="url(#fbura4qzcntbe)" height="3" style="stroke:#EEEEEE;stroke-width:1.0;" width="1352.5" x="0" y="83.8633"/><line style="stroke:#000000;stroke-width:1.0;" x1="0" x2="1352.5" y1="83.8633" y2="83.8633"/><line style="stroke:#000000;stroke-width:1.0;" x1="0" x2="1352.5" y1="86.8633" y2="86.8633"/><rect fill="#EEEEEE" filter="url(#fbura4qzcntbe)" height="23.1328" style="stroke:#000000;stroke-width:2.0;" width="110" x="621.25" y="73.2969"/><text fill="#000000" font-family="sans-serif" font-size="13" font-weight="bold" lengthAdjust="spacing" textLength="91" x="627.25" y="89.3638">Key request</text><line style="stroke:#A80036;stroke-width:1.0;" x1="44.5" x2="86.5" y1="157.8281" y2="157.8281"/><line style="stroke:#A80036;stroke-width:1.0;" x1="86.5" x2="86.5" y1="157.8281" y2="170.8281"/><line style="stroke:#A80036;stroke-width:1.0;" x1="45.5" x2="86.5" y1="170.8281" y2="170.8281"/><polygon fill="#A80036" points="55.5,166.8281,45.5,170.8281,55.5,174.8281,51.5,170.8281" style="stroke:#A80036;stroke-width:1.0;"/><text fill="#000000" font-family="sans-serif" font-size="13" font-weight="bold" lengthAdjust="spacing" textLength="19" x="51.5" y="137.6294">A1</text><text fill="#000000" font-family="sans-serif" font-size="13" lengthAdjust="spacing" textLength="125" x="74.5" y="122.4966">create_KeyRequest</text><text fill="#000000" font-family="sans-serif" font-size="13" lengthAdjust="spacing" textLength="189" x="74.5" y="137.6294">(req_nameA, master_SAE_ID,</text><text fill="#000000" font-family="sans-serif" font-size="13" lengthAdjust="spacing" textLength="182" x="78.5" y="152.7622">slave_SAE_ID, size, number)</text><polygon fill="#A80036" points="252.5,225.9609,262.5,229.9609,252.5,233.9609,256.5,229.9609" style="stroke:#A80036;stroke-width:1.0;"/><line style="stroke:#A80036;stroke-width:1.0;" x1="54.5" x2="258.5" y1="229.9609" y2="229.9609"/><text fill="#000000" font-family="sans-serif" font-size="13" font-weight="bold" lengthAdjust="spacing" textLength="19" x="61.5" y="224.895">A2</text><text fill="#000000" font-family="sans-serif" font-size="13" lengthAdjust="spacing" textLength="173" x="84.5" y="224.895">reacts to resource creation</text><line style="stroke:#A80036;stroke-width:1.0;" x1="274.5" x2="316.5" y1="274.2266" y2="274.2266"/><line style="stroke:#A80036;stroke-width:1.0;" x1="316.5" x2="316.5" y1="274.2266" y2="287.2266"/><line style="stroke:#A80036;stroke-width:1.0;" x1="275.5" x2="316.5" y1="287.2266" y2="287.2266"/><polygon fill="#A80036" points="285.5,283.2266,275.5,287.2266,285.5,291.2266,281.5,287.2266" style="stroke:#A80036;stroke-width:1.0;"/><text fill="#000000" font-family="sans-serif" font-size="13" font-weight="bold" lengthAdjust="spacing" textLength="18" x="281.5" y="261.5942">A3</text><text fill="#000000" font-family="sans-serif" font-size="13" lengthAdjust="spacing" textLength="98" x="303.5" y="254.0278">retrieve_Secret</text><text fill="#000000" font-family="sans-serif" font-size="13" lengthAdjust="spacing" textLength="165" x="303.5" y="269.1606">(master_SAE_credentials)</text><polygon fill="#A80036" points="427.5,312.3594,437.5,316.3594,427.5,320.3594,431.5,316.3594" style="stroke:#A80036;stroke-width:1.0;"/><line style="stroke:#A80036;stroke-width:1.0;" x1="274.5" x2="433.5" y1="316.3594" y2="316.3594"/><text fill="#000000" font-family="sans-serif" font-size="13" font-weight="bold" lengthAdjust="spacing" textLength="19" x="286.5" y="311.2935">A4</text><text fill="#000000" font-family="sans-serif" font-size="13" lengthAdjust="spacing" textLength="118" x="309.5" y="311.2935">login(master_SAE)</text><polygon fill="#A80036" points="285.5,341.4922,275.5,345.4922,285.5,349.4922,281.5,345.4922" style="stroke:#A80036;stroke-width:1.0;"/><line style="stroke:#A80036;stroke-width:1.0;" x1="279.5" x2="447.5" y1="345.4922" y2="345.4922"/><text fill="#000000" font-family="sans-serif" font-size="13" font-weight="bold" lengthAdjust="spacing" textLength="19" x="286.5" y="340.4263">A5</text><text fill="#000000" font-family="sans-serif" font-size="13" lengthAdjust="spacing" textLength="127" x="309.5" y="340.4263">&lt; keycloak_token &gt;</text><polygon fill="#A80036" points="476.5,400.8906,486.5,404.8906,476.5,408.8906,480.5,404.8906" style="stroke:#A80036;stroke-width:1.0;"/><line style="stroke:#A80036;stroke-width:1.0;" x1="274.5" x2="482.5" y1="404.8906" y2="404.8906"/><text fill="#000000" font-family="sans-serif" font-size="13" font-weight="bold" lengthAdjust="spacing" textLength="19" x="290" y="384.6919">A6</text><text fill="#000000" font-family="sans-serif" font-size="13" lengthAdjust="spacing" textLength="156" x="313" y="369.5591">getKey (master_SAE_ID,</text><text fill="#000000" font-family="sans-serif" font-size="13" lengthAdjust="spacing" textLength="90" x="346" y="384.6919">slave_SAE_ID,</text><text fill="#000000" font-family="sans-serif" font-size="13" lengthAdjust="spacing" textLength="132" x="327" y="399.8247">size, number, token)</text><polygon fill="#A80036" points="509.5,430.0234,499.5,434.0234,509.5,438.0234,505.5,434.0234" style="stroke:#A80036;stroke-width:1.0;"/><polygon fill="#A80036" points="628.5,430.0234,638.5,434.0234,628.5,438.0234,632.5,434.0234" style="stroke:#A80036;stroke-width:1.0;"/><line style="stroke:#A80036;stroke-width:1.0;" x1="503.5" x2="634.5" y1="434.0234" y2="434.0234"/><text fill="#000000" font-family="sans-serif" font-size="13" font-weight="bold" lengthAdjust="spacing" textLength="19" x="508" y="428.9575">A7</text><text fill="#000000" font-family="sans-serif" font-size="13" lengthAdjust="spacing" textLength="100" x="531" y="428.9575">exchange_keys</text><polygon fill="#A80036" points="285.5,489.1563,275.5,493.1563,285.5,497.1563,281.5,493.1563" style="stroke:#A80036;stroke-width:1.0;"/><line style="stroke:#A80036;stroke-width:1.0;" x1="279.5" x2="492.5" y1="493.1563" y2="493.1563"/><text fill="#000000" font-family="sans-serif" font-size="13" font-weight="bold" lengthAdjust="spacing" textLength="19" x="318" y="488.0903">A8</text><text fill="#000000" font-family="sans-serif" font-size="13" lengthAdjust="spacing" textLength="109" x="341" y="488.0903">&lt; keyIDs, keys &gt;</text><line style="stroke:#A80036;stroke-width:1.0;" x1="274.5" x2="316.5" y1="542.4219" y2="542.4219"/><line style="stroke:#A80036;stroke-width:1.0;" x1="316.5" x2="316.5" y1="542.4219" y2="555.4219"/><line style="stroke:#A80036;stroke-width:1.0;" x1="269.5" x2="316.5" y1="555.4219" y2="555.4219"/><polygon fill="#A80036" points="279.5,551.4219,269.5,555.4219,279.5,559.4219,275.5,555.4219" style="stroke:#A80036;stroke-width:1.0;"/><text fill="#000000" font-family="sans-serif" font-size="13" font-weight="bold" lengthAdjust="spacing" textLength="19" x="281.5" y="529.7896">A9</text><text fill="#000000" font-family="sans-serif" font-size="13" lengthAdjust="spacing" textLength="89" x="304.5" y="522.2231">create_Secret</text><text fill="#000000" font-family="sans-serif" font-size="13" lengthAdjust="spacing" textLength="173" x="308.5" y="537.356">(req_nameA, keyIDs, keys)</text><polygon fill="#A80036" points="55.5,575.5547,45.5,579.5547,55.5,583.5547,51.5,579.5547" style="stroke:#A80036;stroke-width:1.0;"/><line style="stroke:#A80036;stroke-width:1.0;" x1="49.5" x2="282.5" y1="579.5547" y2="579.5547"/><text fill="#000000" font-family="sans-serif" font-size="13" font-weight="bold" lengthAdjust="spacing" textLength="29" x="56.5" y="574.4888">A10</text><text fill="#000000" font-family="sans-serif" font-size="13" lengthAdjust="spacing" textLength="182" x="89.5" y="574.4888">retrieve_Secret(req_nameA)</text><polygon fill="#A80036" points="1105.5,604.6875,1115.5,608.6875,1105.5,612.6875,1109.5,608.6875" style="stroke:#A80036;stroke-width:1.0;"/><line style="stroke:#A80036;stroke-width:1.0;" x1="39.5" x2="1111.5" y1="608.6875" y2="608.6875"/><text fill="#000000" font-family="sans-serif" font-size="13" font-weight="bold" lengthAdjust="spacing" textLength="28" x="520" y="603.6216">A11</text><text fill="#000000" font-family="sans-serif" font-size="13" lengthAdjust="spacing" textLength="85" x="552" y="603.6216">sends keyIDs</text><line style="stroke:#A80036;stroke-width:1.0;" x1="1085.5" x2="1127.5" y1="673.0859" y2="673.0859"/><line style="stroke:#A80036;stroke-width:1.0;" x1="1085.5" x2="1085.5" y1="673.0859" y2="686.0859"/><line style="stroke:#A80036;stroke-width:1.0;" x1="1085.5" x2="1132.5" y1="686.0859" y2="686.0859"/><polygon fill="#A80036" points="1112.5,682.0859,1122.5,686.0859,1112.5,690.0859,1116.5,686.0859" style="stroke:#A80036;stroke-width:1.0;"/><text fill="#000000" font-family="sans-serif" font-size="13" font-weight="bold" lengthAdjust="spacing" textLength="19" x="916.5" y="652.8872">B1</text><text fill="#000000" font-family="sans-serif" font-size="13" lengthAdjust="spacing" textLength="125" x="939.5" y="637.7544">create_KeyRequest</text><text fill="#000000" font-family="sans-serif" font-size="13" lengthAdjust="spacing" textLength="184" x="939.5" y="652.8872">(req_nameB,master_SAE_ID,</text><text fill="#000000" font-family="sans-serif" font-size="13" lengthAdjust="spacing" textLength="142" x="939.5" y="668.02">slave_SAE_ID, keyIDs)</text><polygon fill="#A80036" points="903.5,706.2188,893.5,710.2188,903.5,714.2188,899.5,710.2188" style="stroke:#A80036;stroke-width:1.0;"/><line style="stroke:#A80036;stroke-width:1.0;" x1="897.5" x2="1111.5" y1="710.2188" y2="710.2188"/><text fill="#000000" font-family="sans-serif" font-size="13" font-weight="bold" lengthAdjust="spacing" textLength="19" x="904.5" y="705.1528">B2</text><text fill="#000000" font-family="sans-serif" font-size="13" lengthAdjust="spacing" textLength="173" x="927.5" y="705.1528">reacts to resource creation</text><line style="stroke:#A80036;stroke-width:1.0;" x1="892.5" x2="934.5" y1="754.4844" y2="754.4844"/><line style="stroke:#A80036;stroke-width:1.0;" x1="934.5" x2="934.5" y1="754.4844" y2="767.4844"/><line style="stroke:#A80036;stroke-width:1.0;" x1="893.5" x2="934.5" y1="767.4844" y2="767.4844"/><polygon fill="#A80036" points="903.5,763.4844,893.5,767.4844,903.5,771.4844,899.5,767.4844" style="stroke:#A80036;stroke-width:1.0;"/><text fill="#000000" font-family="sans-serif" font-size="13" font-weight="bold" lengthAdjust="spacing" textLength="18" x="899.5" y="741.8521">B3</text><text fill="#000000" font-family="sans-serif" font-size="13" lengthAdjust="spacing" textLength="98" x="921.5" y="734.2856">retrieve_Secret</text><text fill="#000000" font-family="sans-serif" font-size="13" lengthAdjust="spacing" textLength="153" x="921.5" y="749.4185">(slave_SAE_credentials)</text><polygon fill="#A80036" points="1045.5,792.6172,1055.5,796.6172,1045.5,800.6172,1049.5,796.6172" style="stroke:#A80036;stroke-width:1.0;"/><line style="stroke:#A80036;stroke-width:1.0;" x1="892.5" x2="1051.5" y1="796.6172" y2="796.6172"/><text fill="#000000" font-family="sans-serif" font-size="13" font-weight="bold" lengthAdjust="spacing" textLength="19" x="904.5" y="791.5513">B4</text><text fill="#000000" font-family="sans-serif" font-size="13" lengthAdjust="spacing" textLength="118" x="927.5" y="791.5513">login(master_SAE)</text><polygon fill="#A80036" points="903.5,821.75,893.5,825.75,903.5,829.75,899.5,825.75" style="stroke:#A80036;stroke-width:1.0;"/><line style="stroke:#A80036;stroke-width:1.0;" x1="897.5" x2="1065.5" y1="825.75" y2="825.75"/><text fill="#000000" font-family="sans-serif" font-size="13" font-weight="bold" lengthAdjust="spacing" textLength="19" x="904.5" y="820.6841">B5</text><text fill="#000000" font-family="sans-serif" font-size="13" lengthAdjust="spacing" textLength="127" x="927.5" y="820.6841">&lt; keycloak_token &gt;</text><polygon fill="#A80036" points="661.5,881.1484,651.5,885.1484,661.5,889.1484,657.5,885.1484" style="stroke:#A80036;stroke-width:1.0;"/><line style="stroke:#A80036;stroke-width:1.0;" x1="655.5" x2="881.5" y1="885.1484" y2="885.1484"/><text fill="#000000" font-family="sans-serif" font-size="13" font-weight="bold" lengthAdjust="spacing" textLength="19" x="660" y="864.9497">B6</text><text fill="#000000" font-family="sans-serif" font-size="13" lengthAdjust="spacing" textLength="118" x="719" y="849.8169">getKeyWithKeyIDs</text><text fill="#000000" font-family="sans-serif" font-size="13" lengthAdjust="spacing" textLength="107" x="722.5" y="864.9497">(master_SAE_ID,</text><text fill="#000000" font-family="sans-serif" font-size="13" lengthAdjust="spacing" textLength="186" x="687" y="880.0825">slave_SAE_ID, keyIDs, token)</text><polygon fill="#A80036" points="870.5,910.2813,880.5,914.2813,870.5,918.2813,874.5,914.2813" style="stroke:#A80036;stroke-width:1.0;"/><line style="stroke:#A80036;stroke-width:1.0;" x1="645.5" x2="876.5" y1="914.2813" y2="914.2813"/><text fill="#000000" font-family="sans-serif" font-size="13" font-weight="bold" lengthAdjust="spacing" textLength="19" x="698" y="909.2153">B7</text><text fill="#000000" font-family="sans-serif" font-size="13" lengthAdjust="spacing" textLength="109" x="721" y="909.2153">&lt; keyIDs, keys &gt;</text><line style="stroke:#A80036;stroke-width:1.0;" x1="892.5" x2="934.5" y1="963.5469" y2="963.5469"/><line style="stroke:#A80036;stroke-width:1.0;" x1="934.5" x2="934.5" y1="963.5469" y2="976.5469"/><line style="stroke:#A80036;stroke-width:1.0;" x1="887.5" x2="934.5" y1="976.5469" y2="976.5469"/><polygon fill="#A80036" points="897.5,972.5469,887.5,976.5469,897.5,980.5469,893.5,976.5469" style="stroke:#A80036;stroke-width:1.0;"/><text fill="#000000" font-family="sans-serif" font-size="13" font-weight="bold" lengthAdjust="spacing" textLength="19" x="899.5" y="950.9146">B8</text><text fill="#000000" font-family="sans-serif" font-size="13" lengthAdjust="spacing" textLength="89" x="922.5" y="943.3481">create_Secret</text><text fill="#000000" font-family="sans-serif" font-size="13" lengthAdjust="spacing" textLength="172" x="926.5" y="958.481">(req_nameB, keyIDs, keys)</text><polygon fill="#A80036" points="1105.5,996.6797,1115.5,1000.6797,1105.5,1004.6797,1109.5,1000.6797" style="stroke:#A80036;stroke-width:1.0;"/><line style="stroke:#A80036;stroke-width:1.0;" x1="899.5" x2="1111.5" y1="1000.6797" y2="1000.6797"/><text fill="#000000" font-family="sans-serif" font-size="13" font-weight="bold" lengthAdjust="spacing" textLength="19" x="906.5" y="995.6138">B9</text><text fill="#000000" font-family="sans-serif" font-size="13" lengthAdjust="spacing" textLength="181" x="929.5" y="995.6138">retrieve_Secret(req_nameB)</text><!--MD5=[3fd44724ee93cfd96d6d479459c92e13]
@startuml
skinparam sequenceMessageAlign center
entity "SAE_A01" as ASAE order 1 #lightCoral
entity "SAE_B01" as BSAE order 8 #LightBlue
participant "QKS A" as AQKS order 4 #lightCoral
participant "QKS B" as BQKS order 5 #LightBlue
participant "OPERATOR A" as AOP order 3 #lightCoral
participant "OPERATOR B" as BOP order 6 #LightBlue

== Key request ==

autonumber "<b>A0"

ASAE -> ASAE++- -#lightCoral: create_KeyRequest \n(req_nameA, master_SAE_ID, \n slave_SAE_ID, size, number)
?->AOP ++#lightCoral: reacts to resource creation
AOP -> AOP : retrieve_Secret\n(master_SAE_credentials)
AOP ->?: login(master_SAE)
AOP <-? : < keycloak_token >
AOP -> AQKS ++#lightCoral: getKey (master_SAE_ID, \nslave_SAE_ID, \nsize, number, token)
AQKS <-> BQKS ++#lightBlue: exchange_keys
deactivate BQKS
AQKS -> AOP - -: < keyIDs, keys >
AOP -> AOP - -: create_Secret \n (req_nameA, keyIDs, keys) 

ASAE<-? ++#lightCoral: retrieve_Secret(req_nameA) 
ASAE -> BSAE - -++#lightBlue: sends keyIDs 

autonumber "<b>B0"
BSAE <- BSAE - -: create_KeyRequest \n(req_nameB,master_SAE_ID, \nslave_SAE_ID, keyIDs)
BOP<-? ++#lightBlue: reacts to resource creation
BOP -> BOP : retrieve_Secret\n(slave_SAE_credentials)
BOP ->?: login(master_SAE)
BOP <-? : < keycloak_token >
BOP -> BQKS ++#lightBlue: getKeyWithKeyIDs\n(master_SAE_ID, \n slave_SAE_ID, keyIDs, token)
BQKS -> BOP - -: < keyIDs, keys >
BOP -> BOP - -: create_Secret \n (req_nameB, keyIDs, keys) 
?->BSAE ++#lightBlue: retrieve_Secret(req_nameB)
deactivate BSAE
@enduml

PlantUML version 1.2021.15beta8(Unknown compile time)
(GPL source distribution)
Java Runtime: Java(TM) SE Runtime Environment
JVM: Java HotSpot(TM) 64-Bit Server VM
Default Encoding: UTF-8
Language: en
Country: US
--></g></svg>