<?xml version="1.0" encoding="UTF-8" standalone="no"?><svg xmlns="http://www.w3.org/2000/svg" xmlns:xlink="http://www.w3.org/1999/xlink" contentScriptType="application/ecmascript" contentStyleType="text/css" height="200px" preserveAspectRatio="none" style="width:481px;height:200px;background:#FFFFFF;" version="1.1" viewBox="0 0 481 200" width="481px" zoomAndPan="magnify"><defs/><g><rect fill="#FFFFFF" height="121.7813" rx="5" ry="5" style="stroke:#FFFFFF;stroke-width:1.5;" width="153" x="10" y="38.5"/><text fill="#000000" font-family="sans-serif" font-size="14" lengthAdjust="spacing" textLength="52" x="15" y="53.4951">version</text><text fill="#000000" font-family="sans-serif" font-size="14" lengthAdjust="spacing" textLength="53" x="105" y="53.4951">Integer</text><line style="stroke:#A80036;stroke-width:1.0;" x1="100" x2="100" y1="38.5" y2="58.7969"/><line style="stroke:#A80036;stroke-width:1.0;" x1="10" x2="163" y1="58.7969" y2="58.7969"/><text fill="#000000" font-family="sans-serif" font-size="14" lengthAdjust="spacing" textLength="34" x="15" y="73.792">type</text><text fill="#000000" font-family="sans-serif" font-size="14" lengthAdjust="spacing" textLength="44" x="105" y="73.792">String</text><line style="stroke:#A80036;stroke-width:1.0;" x1="100" x2="100" y1="58.7969" y2="79.0938"/><line style="stroke:#A80036;stroke-width:1.0;" x1="10" x2="163" y1="79.0938" y2="79.0938"/><text fill="#000000" font-family="sans-serif" font-size="14" lengthAdjust="spacing" textLength="47" x="15" y="94.0889">source</text><text fill="#000000" font-family="sans-serif" font-size="14" lengthAdjust="spacing" textLength="0" x="117" y="94.0889"/><line style="stroke:#A80036;stroke-width:1.0;" x1="100" x2="100" y1="79.0938" y2="99.3906"/><line style="stroke:#A80036;stroke-width:1.0;" x1="10" x2="163" y1="99.3906" y2="99.3906"/><text fill="#000000" font-family="sans-serif" font-size="14" lengthAdjust="spacing" textLength="52" x="15" y="114.3857">routing</text><text fill="#000000" font-family="sans-serif" font-size="14" lengthAdjust="spacing" textLength="0" x="117" y="114.3857"/><line style="stroke:#A80036;stroke-width:1.0;" x1="100" x2="100" y1="99.3906" y2="119.6875"/><line style="stroke:#A80036;stroke-width:1.0;" x1="10" x2="163" y1="119.6875" y2="119.6875"/><text fill="#000000" font-family="sans-serif" font-size="14" lengthAdjust="spacing" textLength="72" x="15" y="134.6826">neighbors</text><text fill="#000000" font-family="sans-serif" font-size="14" lengthAdjust="spacing" textLength="0" x="117" y="134.6826"/><line style="stroke:#A80036;stroke-width:1.0;" x1="100" x2="100" y1="119.6875" y2="139.9844"/><line style="stroke:#A80036;stroke-width:1.0;" x1="10" x2="163" y1="139.9844" y2="139.9844"/><text fill="#000000" font-family="sans-serif" font-size="14" lengthAdjust="spacing" textLength="80" x="15" y="154.9795">timestamp</text><text fill="#000000" font-family="sans-serif" font-size="14" lengthAdjust="spacing" textLength="44" x="105" y="154.9795">String</text><line style="stroke:#A80036;stroke-width:1.0;" x1="100" x2="100" y1="139.9844" y2="160.2813"/><rect fill="none" height="121.7813" rx="5" ry="5" style="stroke:#A80036;stroke-width:1.5;" width="153" x="10" y="38.5"/><rect fill="#FFFFFF" height="60.8906" rx="5" ry="5" style="stroke:#FFFFFF;stroke-width:1.5;" width="128" x="200" y="10"/><text fill="#000000" font-family="sans-serif" font-size="14" lengthAdjust="spacing" textLength="15" x="205" y="24.9951">ID</text><text fill="#000000" font-family="sans-serif" font-size="14" lengthAdjust="spacing" textLength="44" x="270" y="24.9951">String</text><line style="stroke:#A80036;stroke-width:1.0;" x1="265" x2="265" y1="10" y2="30.2969"/><line style="stroke:#A80036;stroke-width:1.0;" x1="200" x2="328" y1="30.2969" y2="30.2969"/><text fill="#000000" font-family="sans-serif" font-size="14" lengthAdjust="spacing" textLength="55" x="205" y="45.292">address</text><text fill="#000000" font-family="sans-serif" font-size="14" lengthAdjust="spacing" textLength="44" x="270" y="45.292">String</text><line style="stroke:#A80036;stroke-width:1.0;" x1="265" x2="265" y1="30.2969" y2="50.5938"/><line style="stroke:#A80036;stroke-width:1.0;" x1="200" x2="328" y1="50.5938" y2="50.5938"/><text fill="#000000" font-family="sans-serif" font-size="14" lengthAdjust="spacing" textLength="32" x="205" y="65.5889">port</text><text fill="#000000" font-family="sans-serif" font-size="14" lengthAdjust="spacing" textLength="53" x="270" y="65.5889">Integer</text><line style="stroke:#A80036;stroke-width:1.0;" x1="265" x2="265" y1="50.5938" y2="70.8906"/><rect fill="none" height="60.8906" rx="5" ry="5" style="stroke:#A80036;stroke-width:1.5;" width="128" x="200" y="10"/><rect fill="#FFFFFF" height="40.5938" rx="5" ry="5" style="stroke:#FFFFFF;stroke-width:1.5;" width="128" x="200" y="89"/><text fill="#000000" font-family="sans-serif" font-size="14" lengthAdjust="spacing" textLength="55" x="205" y="103.9951">address</text><text fill="#000000" font-family="sans-serif" font-size="14" lengthAdjust="spacing" textLength="44" x="270" y="103.9951">String</text><line style="stroke:#A80036;stroke-width:1.0;" x1="265" x2="265" y1="89" y2="109.2969"/><line style="stroke:#A80036;stroke-width:1.0;" x1="200" x2="328" y1="109.2969" y2="109.2969"/><text fill="#000000" font-family="sans-serif" font-size="14" lengthAdjust="spacing" textLength="32" x="205" y="124.292">port</text><text fill="#000000" font-family="sans-serif" font-size="14" lengthAdjust="spacing" textLength="53" x="270" y="124.292">Integer</text><line style="stroke:#A80036;stroke-width:1.0;" x1="265" x2="265" y1="109.2969" y2="129.5938"/><rect fill="none" height="40.5938" rx="5" ry="5" style="stroke:#A80036;stroke-width:1.5;" width="128" x="200" y="89"/><rect fill="#FFFFFF" height="40.5938" rx="5" ry="5" style="stroke:#FFFFFF;stroke-width:1.5;" width="25" x="251.5" y="148"/><text fill="#000000" font-family="sans-serif" font-size="14" lengthAdjust="spacing" textLength="0" x="268.5" y="162.9951"/><line style="stroke:#A80036;stroke-width:1.0;" x1="251.5" x2="276.5" y1="168.2969" y2="168.2969"/><text fill="#000000" font-family="sans-serif" font-size="14" lengthAdjust="spacing" textLength="15" x="256.5" y="183.292">...</text><rect fill="none" height="40.5938" rx="5" ry="5" style="stroke:#A80036;stroke-width:1.5;" width="25" x="251.5" y="148"/><rect fill="#FFFFFF" height="40.5938" rx="5" ry="5" style="stroke:#FFFFFF;stroke-width:1.5;" width="104" x="365" y="137"/><text fill="#000000" font-family="sans-serif" font-size="14" lengthAdjust="spacing" textLength="15" x="370" y="151.9951">ID</text><text fill="#000000" font-family="sans-serif" font-size="14" lengthAdjust="spacing" textLength="44" x="411" y="151.9951">String</text><line style="stroke:#A80036;stroke-width:1.0;" x1="406" x2="406" y1="137" y2="157.2969"/><line style="stroke:#A80036;stroke-width:1.0;" x1="365" x2="469" y1="157.2969" y2="157.2969"/><text fill="#000000" font-family="sans-serif" font-size="14" lengthAdjust="spacing" textLength="31" x="370" y="172.292">cost</text><text fill="#000000" font-family="sans-serif" font-size="14" lengthAdjust="spacing" textLength="53" x="411" y="172.292">Integer</text><line style="stroke:#A80036;stroke-width:1.0;" x1="406" x2="406" y1="157.2969" y2="177.5938"/><rect fill="none" height="40.5938" rx="5" ry="5" style="stroke:#A80036;stroke-width:1.5;" width="104" x="365" y="137"/><path d="M151,88.5 L164,88.5 C172.7685,88.5 187.967,82.3764 203.8836,74.5035 " fill="none" style="stroke:#A80036;stroke-width:1.0;stroke-dasharray:3.0,3.0;"/><path d="M205.2709,77.243 L205.9382,73.463 L202.4962,71.7641 L210.7322,71.0351 L205.2709,77.243 " fill="#A80036" style="stroke:#A80036;stroke-width:1.0;"/><ellipse cx="151" cy="88.5" fill="#A80036" rx="3" ry="3" style="stroke:#A80036;stroke-width:1.0;"/><path d="M151,109.5 L164,109.5 C173.2687,109.5 183.0232,109.5 192.6525,109.5 " fill="none" style="stroke:#A80036;stroke-width:1.0;stroke-dasharray:3.0,3.0;"/><path d="M192.6525,112.5736 L194.9577,109.5 L192.6525,106.4264 L200.3365,109.5 L192.6525,112.5736 " fill="#A80036" style="stroke:#A80036;stroke-width:1.0;"/><ellipse cx="151" cy="109.5" fill="#A80036" rx="3" ry="3" style="stroke:#A80036;stroke-width:1.0;"/><path d="M265.5,157.5 L278.5,157.5 C304.4424,157.5 333.128,157.5 357.595,157.5 " fill="none" style="stroke:#A80036;stroke-width:1.0;stroke-dasharray:3.0,3.0;"/><path d="M357.595,160.6147 L359.931,157.5 L357.595,154.3853 L365.3817,157.5 L357.595,160.6147 " fill="#A80036" style="stroke:#A80036;stroke-width:1.0;"/><ellipse cx="265.5" cy="157.5" fill="#A80036" rx="3" ry="3" style="stroke:#A80036;stroke-width:1.0;"/><path d="M151,129.5 L164,129.5 C172.359,129.5 218.256,148.8262 244.6991,160.2693 " fill="none" style="stroke:#A80036;stroke-width:1.0;stroke-dasharray:3.0,3.0;"/><path d="M243.4463,163.1522 L246.8613,161.209 L245.952,157.3864 L251.9064,163.4014 L243.4463,163.1522 " fill="#A80036" style="stroke:#A80036;stroke-width:1.0;"/><ellipse cx="151" cy="129.5" fill="#A80036" rx="3" ry="3" style="stroke:#A80036;stroke-width:1.0;"/><!--MD5=[3c22ac35b88953cc007dcdb1eb5397e5]
@startjson
<style>
jsonDiagram {
  node {
	  BackGroundColor White
	}
}
</style>
{
    "version" : "Integer", 
    "type" : "String", 
    "source" : {
        "ID" : "String", 
        "address" : "String",
        "port" : "Integer"
    }, 
    "routing" : {
        "address" : "String", 
        "port" : "Integer"
    }, 
    "neighbors" : [
        {
            "ID" : "String",
            "cost" : "Integer"
        },
		"..."
    ],
    "timestamp" : "String"

}
@endjson

PlantUML version 1.2021.11beta6(Unknown compile time)
(GPL source distribution)
Java Runtime: Java(TM) SE Runtime Environment
JVM: Java HotSpot(TM) 64-Bit Server VM
Default Encoding: UTF-8
Language: en
Country: US
--></g></svg>